<?xml version="1.0" standalone="no"?><svg width="512" height="512" version="1.1" xmlns="http://www.w3.org/2000/svg"><rect fill="#afb2a9" height="65" width="44"/><rect fill="#dde0d5" height="16" width="9" x="18" y="25"/><rect fill="#dde0d5" height="38" width="44" y="65"/><rect fill="#f6f4e7" height="38" width="44" y="65"/><rect fill="#f6f4e7" height="102" width="44" y="103"/><rect fill="#ab0809" height="44" width="44" y="205"/><rect fill="#d2d2c3" height="72" width="44" y="249"/><rect fill="#afb2a9" height="16" width="16" x="14" y="277"/><rect fill="#dc0d07" height="60" width="44" y="321"/><rect fill="#1834c3" height="60" width="44" y="321"/><rect fill="#f6f4e7" height="60" width="44" y="381"/><rect fill="#afb2a9" height="10" width="11" x="17" y="406"/><rect fill="#f6f4e7" height="61" width="44" y="441"/><rect fill="#1834c3" height="61" width="22" y="441"/><rect fill="#dde0d5" height="88" width="44" y="502"/><rect fill="#1834c3" height="65" width="58" x="44"/><rect fill="#dc0d07" height="13" width="9" x="69" y="26"/><rect fill="#f6f4e7" height="38" width="58" x="44" y="65"/><rect fill="#f2dd12" height="9" width="12" x="67" y="80"/><rect fill="#f6f4e7" height="102" width="58" x="44" y="103"/><rect fill="#d3a512" height="102" width="58" x="44" y="103"/><rect fill="#f6f4e7" height="44" width="58" x="44" y="205"/><rect fill="#ab0809" height="44" width="29" x="44" y="205"/><rect fill="#dde0d5" height="72" width="58" x="44" y="249"/><rect fill="#afb2a9" height="60" width="58" x="44" y="321"/><rect fill="#f6f4e7" height="11" width="16" x="65" y="346"/><rect fill="#ab0809" height="60" width="58" x="44" y="381"/><rect fill="#afb2a9" height="61" width="58" x="44" y="441"/><rect fill="#d2d2c3" height="31" width="58" x="44" y="441"/><rect fill="#dc0d07" height="88" width="58" x="44" y="502"/><rect fill="#f6f4e7" height="65" width="50" x="102"/><rect fill="#1834c3" height="38" width="50" x="102" y="65"/><rect fill="#afb2a9" height="102" width="50" x="102" y="103"/><rect fill="#d3a512" height="12" width="12" x="121" y="148"/><rect fill="#dc0d07" height="44" width="50" x="102" y="205"/><rect fill="#f6f4e7" height="72" width="50" x="102" y="249"/><rect fill="#ab0809" height="72" width="25" x="102" y="249"/><rect fill="#f2dd12" height="60" width="50" x="102" y="321"/><rect fill="#dc0d07" height="30" width="50" x="102" y="321"/><rect fill="#f6f4e7" height="60" width="50" x="102" y="381"/><rect fill="#1834c3" height="61" width="50" x="102" y="441"/><rect fill="#f2dd12" height="88" width="50" x="102" y="502"/><rect fill="#ab0809" height="65" width="55" x="152"/><rect fill="#afb2a9" height="15" width="10" x="175" y="25"/><rect fill="#f6f4e7" height="38" width="55" x="152" y="65"/><rect fill="#dde0d5" height="19" width="55" x="152" y="65"/><rect fill="#dde0d5" height="102" width="55" x="152" y="103"/><rect fill="#f6f4e7" height="44" width="55" x="152" y="205"/><rect fill="#f6f4e7" height="72" width="55" x="152" y="249"/><rect fill="#1923a9" height="60" width="55" x="152" y="321"/><rect fill="#ab0809" height="30" width="55" x="152" y="321"/><rect fill="#1834c3" height="60" width="55" x="152" y="381"/><rect fill="#afb2a9" height="61" width="55" x="152" y="441"/><rect fill="#1834c3" height="88" width="55" x="152" y="502"/><rect fill="#d2d2c3" height="65" width="48" x="207"/><rect fill="#1923a9" height="65" width="24" x="207"/><rect fill="#afb2a9" height="38" width="48" x="207" y="65"/><rect fill="#d3a512" height="102" width="48" x="207" y="103"/><rect fill="#d2d2c3" height="11" width="13" x="225" y="149"/><rect fill="#1834c3" height="44" width="48" x="207" y="205"/><rect fill="#d2d2c3" height="72" width="48" x="207" y="249"/><rect fill="#afb2a9" height="60" width="48" x="207" y="321"/><rect fill="#f6f4e7" height="14" width="12" x="225" y="344"/><rect fill="#f6f4e7" height="60" width="48" x="207" y="381"/><rect fill="#1923a9" height="61" width="48" x="207" y="441"/><rect fill="#d3a512" height="61" width="24" x="207" y="441"/><rect fill="#f6f4e7" height="88" width="48" x="207" y="502"/><rect fill="#dde0d5" height="88" width="24" x="207" y="502"/><rect fill="#f6f4e7" height="65" width="43" x="255"/><rect fill="#f2dd12" height="33" width="43" x="255"/><rect fill="#1923a9" height="38" width="43" x="255" y="65"/><rect fill="#dde0d5" height="102" width="43" x="255" y="103"/><rect fill="#f6f4e7" height="44" width="43" x="255" y="205"/><rect fill="#f6f4e7" height="72" width="43" x="255" y="249"/><rect fill="#f2dd12" height="72" width="43" x="255" y="249"/><rect fill="#f6f4e7" height="60" width="43" x="255" y="321"/><rect fill="#1834c3" height="60" width="43" x="255" y="381"/><rect fill="#dde0d5" height="61" width="43" x="255" y="441"/><rect fill="#d3a512" height="88" width="43" x="255" y="502"/><rect fill="#d2d2c3" height="15" width="9" x="272" y="539"/><rect fill="#1923a9" height="65" width="55" x="298"/><rect fill="#dc0d07" height="65" width="55" x="298"/><rect fill="#f6f4e7" height="38" width="55" x="298" y="65"/><rect fill="#1923a9" height="102" width="55" x="298" y="103"/><rect fill="#dde0d5" height="44" width="55" x="298" y="205"/><rect fill="#d3a512" height="44" width="55" x="298" y="205"/><rect fill="#f6f4e7" height="72" width="55" x="298" y="249"/><rect fill="#1834c3" height="72" width="28" x="298" y="249"/><rect fill="#f6f4e7" height="60" width="55" x="298" y="321"/><rect fill="#d3a512" height="60" width="55" x="298" y="381"/><rect fill="#afb2a9" height="60" width="55" x="298" y="381"/><rect fill="#f6f4e7" height="61" width="55" x="298" y="441"/><rect fill="#d2d2c3" height="88" width="55" x="298" y="502"/><rect fill="#dc0d07" height="12" width="12" x="320" y="540"/><rect fill="#ab0809" height="65" width="40" x="353"/><rect fill="#dc0d07" height="38" width="40" x="353" y="65"/><rect fill="#1923a9" height="19" width="40" x="353" y="65"/><rect fill="#dde0d5" height="102" width="40" x="353" y="103"/><rect fill="#d2d2c3" height="44" width="40" x="353" y="205"/><rect fill="#d3a512" height="72" width="40" x="353" y="249"/><rect fill="#dc0d07" height="60" width="40" x="353" y="321"/><rect fill="#f2dd12" height="60" width="40" x="353" y="381"/><rect fill="#dc0d07" height="61" width="40" x="353" y="441"/><rect fill="#d3a512" height="88" width="40" x="353" y="502"/><rect fill="#d2d2c3" height="65" width="42" x="393"/><rect fill="#d3a512" height="11" width="10" x="409" y="27"/><rect fill="#1923a9" height="38" width="42" x="393" y="65"/><rect fill="#ab0809" height="15" width="9" x="410" y="77"/><rect fill="#dc0d07" height="102" width="42" x="393" y="103"/><rect fill="#d3a512" height="102" width="42" x="393" y="103"/><rect fill="#f6f4e7" height="44" width="42" x="393" y="205"/><rect fill="#dc0d07" height="72" width="42" x="393" y="249"/><rect fill="#ab0809" height="9" width="14" x="407" y="281"/><rect fill="#f6f4e7" height="60" width="42" x="393" y="321"/><rect fill="#ab0809" height="60" width="42" x="393" y="321"/><rect fill="#dde0d5" height="60" width="42" x="393" y="381"/><rect fill="#d2d2c3" height="60" width="42" x="393" y="381"/><rect fill="#f6f4e7" height="61" width="42" x="393" y="441"/><rect fill="#1834c3" height="88" width="42" x="393" y="502"/><rect fill="#dde0d5" height="88" width="21" x="393" y="502"/><rect fill="#f6f4e7" height="65" width="66" x="435"/><rect fill="#ab0809" height="65" width="66" x="435"/><rect fill="#d3a512" height="38" width="66" x="435" y="65"/><rect fill="#f2dd12" height="102" width="66" x="435" y="103"/><rect fill="#f6f4e7" height="44" width="66" x="435" y="205"/><rect fill="#ab0809" height="44" width="66" x="435" y="205"/><rect fill="#afb2a9" height="72" width="66" x="435" y="249"/><rect fill="#d2d2c3" height="13" width="16" x="460" y="279"/><rect fill="#f2dd12" height="60" width="66" x="435" y="321"/><rect fill="#1834c3" height="60" width="66" x="435" y="381"/><rect fill="#f6f4e7" height="61" width="66" x="435" y="441"/><rect fill="#afb2a9" height="88" width="66" x="435" y="502"/><rect fill="#dc0d07" height="88" width="33" x="435" y="502"/><rect fill="#f6f4e7" height="65" width="66" x="501"/><rect fill="#f2dd12" height="15" width="13" x="528" y="25"/><rect fill="#f2dd12" height="38" width="66" x="501" y="65"/><rect fill="#dde0d5" height="102" width="66" x="501" y="103"/><rect fill="#afb2a9" height="102" width="33" x="501" y="103"/><rect fill="#f6f4e7" height="44" width="66" x="501" y="205"/><rect fill="#dc0d07" height="44" width="66" x="501" y="205"/><rect fill="#1834c3" height="72" width="66" x="501" y="249"/><rect fill="#1923a9" height="60" width="66" x="501" y="321"/><rect fill="#afb2a9" height="60" width="66" x="501" y="381"/><rect fill="#dde0d5" height="9" width="11" x="529" y="407"/><rect fill="#f2dd12" height="61" width="66" x="501" y="441"/><rect fill="#f6f4e7" height="88" width="66" x="501" y="502"/><rect fill="#1834c3" height="5" width="7" x="44"/><rect fill="#dc0d07" height="7" width="7" x="44" y="5"/><rect fill="#1834c3" height="6" width="7" x="44" y="12"/><rect fill="#ab0809" height="10" width="7" x="44" y="18"/><rect fill="#dc0d07" height="9" width="7" x="44" y="28"/><rect fill="#ab0809" height="8" width="7" x="44" y="37"/><rect fill="#afb2a9" height="9" width="7" x="44" y="45"/><rect fill="#f2dd12" height="4" width="7" x="44" y="54"/><rect fill="#090913" height="7" width="7" x="44" y="58"/><rect fill="#dde0d5" height="6" width="8" x="152" y="321"/><rect fill="#dc0d07" height="10" width="8" x="152" y="327"/><rect fill="#f6f4e7" height="3" width="8" x="152" y="337"/><rect fill="#1834c3" height="5" width="8" x="152" y="340"/><rect fill="#d3a512" height="5" width="8" x="152" y="345"/><rect fill="#1834c3" height="11" width="8" x="152" y="350"/><rect fill="#ab0809" height="11" width="8" x="152" y="361"/><rect fill="#f6f4e7" height="3" width="8" x="152" y="372"/><rect fill="#f2dd12" height="5" width="8" x="152" y="375"/><rect fill="#d3a512" height="1" width="8" x="152" y="380"/><rect fill="#1834c3" height="3" width="7" x="207"/><rect fill="#afb2a9" height="9" width="7" x="207" y="3"/><rect fill="#1834c3" height="11" width="7" x="207" y="12"/><rect fill="#090913" height="8" width="7" x="207" y="23"/><rect fill="#afb2a9" height="8" width="7" x="207" y="31"/><rect fill="#d3a512" height="7" width="7" x="207" y="39"/><rect fill="#090913" height="5" width="7" x="207" y="46"/><rect fill="#dc0d07" height="9" width="7" x="207" y="51"/><rect fill="#f2dd12" height="3" width="7" x="207" y="60"/><rect fill="#090913" height="11" width="7" x="207" y="63"/><rect fill="#1834c3" height="7" width="7" x="207" y="74"/><rect fill="#afb2a9" height="5" width="7" x="207" y="81"/><rect fill="#dde0d5" height="8" width="7" x="207" y="86"/><rect fill="#f6f4e7" height="6" width="7" x="207" y="94"/><rect fill="#d3a512" height="3" width="7" x="207" y="100"/><rect fill="#dde0d5" height="6" width="8" x="255" y="321"/><rect fill="#1834c3" height="10" width="8" x="255" y="327"/><rect fill="#afb2a9" height="11" width="8" x="255" y="337"/><rect fill="#d3a512" height="7" width="8" x="255" y="348"/><rect fill="#1923a9" height="6" width="8" x="255" y="355"/><rect fill="#dde0d5" height="6" width="8" x="255" y="361"/><rect fill="#f2dd12" height="5" width="8" x="255" y="367"/><rect fill="#dc0d07" height="3" width="8" x="255" y="372"/><rect fill="#dde0d5" height="8" width="8" x="255" y="375"/><rect fill="#f6f4e7" height="5" width="8" x="255" y="383"/><rect fill="#d2d2c3" height="6" width="8" x="255" y="388"/><rect fill="#dc0d07" height="6" width="8" x="255" y="394"/><rect fill="#1834c3" height="9" width="8" x="255" y="400"/><rect fill="#1923a9" height="7" width="8" x="255" y="409"/><rect fill="#dc0d07" height="11" width="8" x="255" y="416"/><rect fill="#1834c3" height="11" width="8" x="255" y="427"/><rect fill="#f6f4e7" height="3" width="8" x="255" y="438"/><rect fill="#d3a512" height="8" width="8" x="353" y="103"/><rect fill="#f6f4e7" height="9" width="8" x="353" y="111"/><rect fill="#dde0d5" height="3" width="8" x="353" y="120"/><rect fill="#dc0d07" height="3" width="8" x="353" y="123"/><rect fill="#d3a512" height="9" width="8" x="353" y="126"/><rect fill="#f2dd12" height="3" width="8" x="353" y="135"/><rect fill="#1923a9" height="7" width="8" x="353" y="138"/><rect fill="#f2dd12" height="6" width="8" x="353" y="145"/><rect fill="#afb2a9" height="5" width="8" x="353" y="151"/><rect fill="#090913" height="7" width="8" x="353" y="156"/><rect fill="#f6f4e7" height="11" width="8" x="353" y="163"/><rect fill="#090913" height="8" width="8" x="353" y="174"/><rect fill="#f6f4e7" height="3" width="8" x="353" y="182"/><rect fill="#ab0809" height="5" width="8" x="353" y="185"/><rect fill="#afb2a9" height="5" width="8" x="353" y="190"/><rect fill="#090913" height="7" width="8" x="353" y="195"/><rect fill="#d3a512" height="8" width="8" x="353" y="202"/><rect fill="#dde0d5" height="7" width="8" x="353" y="210"/><rect fill="#1834c3" height="7" width="8" x="353" y="217"/><rect fill="#afb2a9" height="9" width="8" x="353" y="224"/><rect fill="#1923a9" height="5" width="8" x="353" y="233"/><rect fill="#dde0d5" height="5" width="8" x="353" y="238"/><rect fill="#d3a512" height="3" width="8" x="353" y="243"/><rect fill="#090913" height="11" width="8" x="353" y="246"/><rect fill="#f6f4e7" height="10" width="8" x="353" y="257"/><rect fill="#dde0d5" height="4" width="8" x="353" y="267"/><rect fill="#d2d2c3" height="10" width="8" x="353" y="271"/><rect fill="#afb2a9" height="9" width="8" x="353" y="281"/><rect fill="#ab0809" height="9" width="8" x="353" y="290"/><rect fill="#1834c3" height="5" width="8" x="353" y="299"/><rect fill="#dde0d5" height="9" width="8" x="353" y="304"/><rect fill="#d2d2c3" height="7" width="8" x="353" y="313"/><rect fill="#f2dd12" height="11" width="8" x="353" y="320"/><rect fill="#d3a512" height="5" width="8" x="353" y="331"/><rect fill="#dde0d5" height="5" width="8" x="353" y="336"/><rect fill="#d2d2c3" height="7" width="8" x="353" y="341"/><rect fill="#1834c3" height="11" width="8" x="353" y="348"/><rect fill="#afb2a9" height="3" width="8" x="353" y="359"/><rect fill="#d3a512" height="11" width="8" x="353" y="362"/><rect fill="#090913" height="3" width="8" x="353" y="373"/><rect fill="#dc0d07" height="9" width="8" x="353" y="376"/><rect fill="#1834c3" height="10" width="8" x="353" y="385"/><rect fill="#afb2a9" height="7" width="8" x="353" y="395"/><rect fill="#dde0d5" height="6" width="8" x="353" y="402"/><rect fill="#dc0d07" height="8" width="8" x="353" y="408"/><rect fill="#1834c3" height="10" width="8" x="353" y="416"/><rect fill="#afb2a9" height="5" width="8" x="353" y="426"/><rect fill="#dde0d5" height="5" width="8" x="353" y="431"/><rect fill="#1923a9" height="6" width="8" x="353" y="436"/><rect fill="#f2dd12" height="11" width="8" x="353" y="442"/><rect fill="#d2d2c3" height="4" width="8" x="353" y="453"/><rect fill="#d3a512" height="5" width="8" x="353" y="457"/><rect fill="#dde0d5" height="10" width="8" x="353" y="462"/><rect fill="#090913" height="8" width="8" x="353" y="472"/><rect fill="#ab0809" height="3" width="8" x="353" y="480"/><rect fill="#dde0d5" height="8" width="8" x="353" y="483"/><rect fill="#afb2a9" height="4" width="8" x="353" y="491"/><rect fill="#1923a9" height="6" width="8" x="353" y="495"/><rect fill="#d2d2c3" height="1" width="8" x="353" y="501"/><rect fill="#1923a9" height="3" width="8" x="393" y="65"/><rect fill="#f2dd12" height="4" width="8" x="393" y="68"/><rect fill="#afb2a9" height="3" width="8" x="393" y="72"/><rect fill="#1834c3" height="3" width="8" x="393" y="75"/><rect fill="#f6f4e7" height="7" width="8" x="393" y="78"/><rect fill="#f2dd12" height="3" width="8" x="393" y="85"/><rect fill="#1923a9" height="8" width="8" x="393" y="88"/><rect fill="#dde0d5" height="11" width="8" x="393" y="96"/><rect fill="#d2d2c3" height="4" width="8" x="393" y="107"/><rect fill="#1923a9" height="11" width="8" x="393" y="111"/><rect fill="#afb2a9" height="8" width="8" x="393" y="122"/><rect fill="#1834c3" height="4" width="8" x="393" y="130"/><rect fill="#dde0d5" height="7" width="8" x="393" y="134"/><rect fill="#f6f4e7" height="5" width="8" x="393" y="141"/><rect fill="#ab0809" height="8" width="8" x="393" y="146"/><rect fill="#d3a512" height="11" width="8" x="393" y="154"/><rect fill="#dc0d07" height="11" width="8" x="393" y="165"/><rect fill="#090913" height="8" width="8" x="393" y="176"/><rect fill="#ab0809" height="10" width="8" x="393" y="184"/><rect fill="#1834c3" height="5" width="8" x="393" y="194"/><rect fill="#090913" height="6" width="8" x="393" y="199"/><rect fill="#d2d2c3" height="4" width="8" x="393" y="205"/><rect fill="#1834c3" height="9" width="8" x="393" y="209"/><rect fill="#dde0d5" height="10" width="8" x="393" y="218"/><rect fill="#dc0d07" height="10" width="8" x="393" y="228"/><rect fill="#f2dd12" height="9" width="8" x="393" y="238"/><rect fill="#ab0809" height="10" width="8" x="393" y="247"/><rect fill="#d3a512" height="8" width="8" x="393" y="257"/><rect fill="#dde0d5" height="9" width="8" x="393" y="265"/><rect fill="#f2dd12" height="11" width="8" x="393" y="274"/><rect fill="#dc0d07" height="11" width="8" x="393" y="285"/><rect fill="#090913" height="6" width="8" x="393" y="296"/><rect fill="#d3a512" height="3" width="8" x="393" y="302"/><rect fill="#090913" height="7" width="8" x="393" y="305"/><rect fill="#1923a9" height="11" width="8" x="393" y="312"/><rect fill="#d2d2c3" height="5" width="8" x="393" y="323"/><rect fill="#dde0d5" height="4" width="8" x="393" y="328"/><rect fill="#dc0d07" height="9" width="8" x="393" y="332"/><rect fill="#dde0d5" height="7" width="8" x="393" y="341"/><rect fill="#d3a512" height="9" width="8" x="393" y="348"/><rect fill="#f2dd12" height="8" width="8" x="393" y="357"/><rect fill="#d2d2c3" height="9" width="8" x="393" y="365"/><rect fill="#f2dd12" height="8" width="8" x="393" y="374"/><rect fill="#d3a512" height="5" width="8" x="393" y="382"/><rect fill="#1834c3" height="11" width="8" x="393" y="387"/><rect fill="#ab0809" height="9" width="8" x="393" y="398"/><rect fill="#afb2a9" height="5" width="8" x="393" y="407"/><rect fill="#d2d2c3" height="4" width="8" x="393" y="412"/><rect fill="#f6f4e7" height="9" width="8" x="393" y="416"/><rect fill="#d2d2c3" height="9" width="8" x="393" y="425"/><rect fill="#090913" height="5" width="8" x="393" y="434"/><rect fill="#f6f4e7" height="11" width="8" x="393" y="439"/><rect fill="#afb2a9" height="5" width="8" x="393" y="450"/><rect fill="#f6f4e7" height="3" width="8" x="393" y="455"/><rect fill="#ab0809" height="6" width="8" x="393" y="458"/><rect fill="#dde0d5" height="10" width="8" x="393" y="464"/><rect fill="#dc0d07" height="11" width="8" x="393" y="474"/><rect fill="#ab0809" height="3" width="8" x="393" y="485"/><rect fill="#afb2a9" height="8" width="8" x="393" y="488"/><rect fill="#ab0809" height="4" width="8" x="393" y="496"/><rect fill="#dc0d07" height="2" width="8" x="393" y="500"/><rect fill="#090913" height="3" width="10" x="435" y="249"/><rect fill="#ab0809" height="6" width="10" x="435" y="252"/><rect fill="#dc0d07" height="6" width="10" x="435" y="258"/><rect fill="#1834c3" height="8" width="10" x="435" y="264"/><rect fill="#d2d2c3" height="4" width="10" x="435" y="272"/><rect fill="#afb2a9" height="4" width="10" x="435" y="276"/><rect fill="#f6f4e7" height="4" width="10" x="435" y="280"/><rect fill="#090913" height="11" width="10" x="435" y="284"/><rect fill="#1834c3" height="4" width="10" x="435" y="295"/><rect fill="#1923a9" height="3" width="10" x="435" y="299"/><rect fill="#d3a512" height="7" width="10" x="435" y="302"/><rect fill="#dde0d5" height="3" width="10" x="435" y="309"/><rect fill="#d3a512" height="5" width="10" x="435" y="312"/><rect fill="#f2dd12" height="9" width="10" x="435" y="317"/><rect fill="#1834c3" height="5" width="10" x="435" y="326"/><rect fill="#ab0809" height="7" width="10" x="435" y="331"/><rect fill="#d2d2c3" height="10" width="10" x="435" y="338"/><rect fill="#d3a512" height="4" width="10" x="435" y="348"/><rect fill="#090913" height="5" width="10" x="435" y="352"/><rect fill="#f2dd12" height="7" width="10" x="435" y="357"/><rect fill="#afb2a9" height="11" width="10" x="435" y="364"/><rect fill="#d2d2c3" height="5" width="10" x="435" y="375"/><rect fill="#f2dd12" height="11" width="10" x="435" y="380"/><rect fill="#dde0d5" height="3" width="10" x="435" y="391"/><rect fill="#ab0809" height="6" width="10" x="435" y="394"/><rect fill="#f2dd12" height="11" width="10" x="435" y="400"/><rect fill="#1834c3" height="10" width="10" x="435" y="411"/><rect fill="#afb2a9" height="8" width="10" x="435" y="421"/><rect fill="#1834c3" height="8" width="10" x="435" y="429"/><rect fill="#dc0d07" height="10" width="10" x="435" y="437"/><rect fill="#d3a512" height="4" width="10" x="435" y="447"/><rect fill="#dc0d07" height="6" width="10" x="435" y="451"/><rect fill="#f6f4e7" height="6" width="10" x="435" y="457"/><rect fill="#dc0d07" height="10" width="10" x="435" y="463"/><rect fill="#ab0809" height="7" width="10" x="435" y="473"/><rect fill="#1923a9" height="6" width="10" x="435" y="480"/><rect fill="#ab0809" height="3" width="10" x="435" y="486"/><rect fill="#dc0d07" height="7" width="10" x="435" y="489"/><rect fill="#090913" height="6" width="10" x="435" y="496"/><rect fill="#1923a9" height="11" width="10" x="501" y="103"/><rect fill="#1834c3" height="9" width="10" x="501" y="114"/><rect fill="#dc0d07" height="7" width="10" x="501" y="123"/><rect fill="#090913" height="10" width="10" x="501" y="130"/><rect fill="#d2d2c3" height="6" width="10" x="501" y="140"/><rect fill="#f2dd12" height="4" width="10" x="501" y="146"/><rect fill="#dc0d07" height="3" width="10" x="501" y="150"/><rect fill="#090913" height="10" width="10" x="501" y="153"/><rect fill="#d3a512" height="4" width="10" x="501" y="163"/><rect fill="#dc0d07" height="4" width="10" x="501" y="167"/><rect fill="#dde0d5" height="5" width="10" x="501" y="171"/><rect fill="#f2dd12" height="3" width="10" x="501" y="176"/><rect fill="#d3a512" height="5" width="10" x="501" y="179"/><rect fill="#f6f4e7" height="6" width="10" x="501" y="184"/><rect fill="#d3a512" height="9" width="10" x="501" y="190"/><rect fill="#afb2a9" height="9" width="10" x="501" y="199"/><rect fill="#f2dd12" height="11" width="10" x="501" y="208"/><rect fill="#090913" height="9" width="10" x="501" y="219"/><rect fill="#ab0809" height="10" width="10" x="501" y="228"/><rect fill="#d3a512" height="8" width="10" x="501" y="238"/><rect fill="#090913" height="8" width="10" x="501" y="246"/><rect fill="#ab0809" height="7" width="10" x="501" y="254"/><rect fill="#090913" height="4" width="10" x="501" y="261"/><rect fill="#dde0d5" height="4" width="10" x="501" y="265"/><rect fill="#1923a9" height="4" width="10" x="501" y="269"/><rect fill="#1834c3" height="8" width="10" x="501" y="273"/><rect fill="#d3a512" height="6" width="10" x="501" y="281"/><rect fill="#f6f4e7" height="4" width="10" x="501" y="287"/><rect fill="#d3a512" height="8" width="10" x="501" y="291"/><rect fill="#afb2a9" height="9" width="10" x="501" y="299"/><rect fill="#ab0809" height="3" width="10" x="501" y="308"/><rect fill="#dc0d07" height="9" width="10" x="501" y="311"/><rect fill="#1834c3" height="11" width="10" x="501" y="320"/><rect fill="#d3a512" height="6" width="10" x="501" y="331"/><rect fill="#d2d2c3" height="5" width="10" x="501" y="337"/><rect fill="#1834c3" height="5" width="10" x="501" y="342"/><rect fill="#d2d2c3" height="8" width="10" x="501" y="347"/><rect fill="#1834c3" height="8" width="10" x="501" y="355"/><rect fill="#dc0d07" height="3" width="10" x="501" y="363"/><rect fill="#d2d2c3" height="4" width="10" x="501" y="366"/><rect fill="#dc0d07" height="4" width="10" x="501" y="370"/><rect fill="#f6f4e7" height="4" width="10" x="501" y="374"/><rect fill="#d3a512" height="3" width="10" x="501" y="378"/><rect fill="#dc0d07" height="7" width="10" x="567" y="65"/><rect fill="#ab0809" height="3" width="10" x="567" y="72"/><rect fill="#d2d2c3" height="7" width="10" x="567" y="75"/><rect fill="#dc0d07" height="4" width="10" x="567" y="82"/><rect fill="#f6f4e7" height="9" width="10" x="567" y="86"/><rect fill="#d2d2c3" height="3" width="10" x="567" y="95"/><rect fill="#afb2a9" height="11" width="10" x="567" y="98"/><rect fill="#f2dd12" height="6" width="10" x="567" y="109"/><rect fill="#dde0d5" height="9" width="10" x="567" y="115"/><rect fill="#dc0d07" height="5" width="10" x="567" y="124"/><rect fill="#1923a9" height="8" width="10" x="567" y="129"/><rect fill="#f6f4e7" height="3" width="10" x="567" y="137"/><rect fill="#afb2a9" height="7" width="10" x="567" y="140"/><rect fill="#dde0d5" height="6" width="10" x="567" y="147"/><rect fill="#d2d2c3" height="6" width="10" x="567" y="153"/><rect fill="#f6f4e7" height="7" width="10" x="567" y="159"/><rect fill="#afb2a9" height="9" width="10" x="567" y="166"/><rect fill="#d3a512" height="10" width="10" x="567" y="175"/><rect fill="#090913" height="11" width="10" x="567" y="185"/><rect fill="#d2d2c3" height="3" width="10" x="567" y="196"/><rect fill="#dde0d5" height="7" width="10" x="567" y="199"/><rect fill="#1834c3" height="9" width="10" x="567" y="206"/><rect fill="#dde0d5" height="9" width="10" x="567" y="215"/><rect fill="#f6f4e7" height="7" width="10" x="567" y="224"/><rect fill="#dc0d07" height="3" width="10" x="567" y="231"/><rect fill="#d3a512" height="5" width="10" x="567" y="234"/><rect fill="#090913" height="11" width="10" x="567" y="239"/><rect fill="#dc0d07" height="5" width="10" x="567" y="250"/><rect fill="#1834c3" height="6" width="10" x="567" y="255"/><rect fill="#d3a512" height="5" width="10" x="567" y="261"/><rect fill="#dde0d5" height="4" width="10" x="567" y="266"/><rect fill="#f2dd12" height="3" width="10" x="567" y="270"/><rect fill="#dde0d5" height="11" width="10" x="567" y="273"/><rect fill="#1834c3" height="3" width="10" x="567" y="284"/><rect fill="#afb2a9" height="4" width="10" x="567" y="287"/><rect fill="#d3a512" height="3" width="10" x="567" y="291"/><rect fill="#1834c3" height="6" width="10" x="567" y="294"/><rect fill="#dde0d5" height="3" width="10" x="567" y="300"/><rect fill="#f2dd12" height="11" width="10" x="567" y="303"/><rect fill="#dde0d5" height="11" width="10" x="567" y="314"/><rect fill="#1923a9" height="3" width="10" x="567" y="325"/><rect fill="#090913" height="5" width="10" x="567" y="328"/><rect fill="#dc0d07" height="10" width="10" x="567" y="333"/><rect fill="#f6f4e7" height="8" width="10" x="567" y="343"/><rect fill="#ab0809" height="8" width="10" x="567" y="351"/><rect fill="#1834c3" height="5" width="10" x="567" y="359"/><rect fill="#d3a512" height="9" width="10" x="567" y="364"/><rect fill="#d2d2c3" height="6" width="10" x="567" y="373"/><rect fill="#ab0809" height="10" width="10" x="567" y="379"/><rect fill="#afb2a9" height="4" width="10" x="567" y="389"/><rect fill="#f2dd12" height="10" width="10" x="567" y="393"/><rect fill="#d2d2c3" height="11" width="10" x="567" y="403"/><rect fill="#dde0d5" height="8" width="10" x="567" y="414"/><rect fill="#d2d2c3" height="6" width="10" x="567" y="422"/><rect fill="#ab0809" height="10" width="10" x="567" y="428"/><rect fill="#f2dd12" height="10" width="10" x="567" y="438"/><rect fill="#afb2a9" height="8" width="10" x="567" y="448"/><rect fill="#dde0d5" height="10" width="10" x="567" y="456"/><rect fill="#ab0809" height="7" width="10" x="567" y="466"/><rect fill="#afb2a9" height="7" width="10" x="567" y="473"/><rect fill="#f2dd12" height="11" width="10" x="567" y="480"/><rect fill="#090913" height="5" width="10" x="567" y="491"/><rect fill="#afb2a9" height="6" width="10" x="567" y="496"/><rect fill="#f6f4e7" height="7" width="4" x="207" y="65"/><rect fill="#afb2a9" height="7" width="8" x="211" y="65"/><rect fill="#090913" height="7" width="10" x="219" y="65"/><rect fill="#1834c3" height="7" width="7" x="229" y="65"/><rect fill="#090913" height="7" width="12" x="236" y="65"/><rect fill="#ab0809" height="7" width="6" x="248" y="65"/><rect fill="#f6f4e7" height="7" width="1" x="254" y="65"/><rect fill="#090913" height="7" width="5" y="103"/><rect fill="#f2dd12" height="7" width="11" x="5" y="103"/><rect fill="#afb2a9" height="7" width="6" x="16" y="103"/><rect fill="#090913" height="7" width="11" x="22" y="103"/><rect fill="#d2d2c3" height="7" width="5" x="33" y="103"/><rect fill="#1923a9" height="7" width="6" x="38" y="103"/><rect fill="#f2dd12" height="9" width="12" x="152" y="205"/><rect fill="#090913" height="9" width="5" x="164" y="205"/><rect fill="#d3a512" height="9" width="7" x="169" y="205"/><rect fill="#d2d2c3" height="9" width="9" x="176" y="205"/><rect fill="#afb2a9" height="9" width="8" x="185" y="205"/><rect fill="#dde0d5" height="9" width="5" x="193" y="205"/><rect fill="#f2dd12" height="9" width="10" x="198" y="205"/><rect fill="#f6f4e7" height="9" width="12" x="208" y="205"/><rect fill="#1834c3" height="9" width="11" x="220" y="205"/><rect fill="#f6f4e7" height="9" width="7" x="231" y="205"/><rect fill="#1923a9" height="9" width="8" x="238" y="205"/><rect fill="#ab0809" height="9" width="12" x="246" y="205"/><rect fill="#f2dd12" height="9" width="8" x="258" y="205"/><rect fill="#d3a512" height="9" width="11" x="266" y="205"/><rect fill="#dc0d07" height="9" width="5" x="277" y="205"/><rect fill="#1834c3" height="9" width="6" x="282" y="205"/><rect fill="#ab0809" height="9" width="9" x="288" y="205"/><rect fill="#1923a9" height="9" width="6" x="297" y="205"/><rect fill="#090913" height="9" width="5" x="303" y="205"/><rect fill="#f2dd12" height="9" width="7" x="308" y="205"/><rect fill="#f6f4e7" height="9" width="11" x="315" y="205"/><rect fill="#afb2a9" height="9" width="10" x="326" y="205"/><rect fill="#f2dd12" height="9" width="7" x="336" y="205"/><rect fill="#afb2a9" height="9" width="4" x="343" y="205"/><rect fill="#f6f4e7" height="9" width="7" x="347" y="205"/><rect fill="#afb2a9" height="9" width="8" x="354" y="205"/><rect fill="#ab0809" height="9" width="11" x="362" y="205"/><rect fill="#f2dd12" height="9" width="4" x="373" y="205"/><rect fill="#d3a512" height="9" width="12" x="377" y="205"/><rect fill="#dc0d07" height="9" width="5" x="389" y="205"/><rect fill="#d2d2c3" height="7" width="7" x="44" y="249"/><rect fill="#1834c3" height="7" width="10" x="51" y="249"/><rect fill="#d2d2c3" height="7" width="9" x="61" y="249"/><rect fill="#f2dd12" height="7" width="4" x="70" y="249"/><rect fill="#1923a9" height="7" width="8" x="74" y="249"/><rect fill="#d3a512" height="7" width="11" x="82" y="249"/><rect fill="#dc0d07" height="7" width="6" x="93" y="249"/><rect fill="#1923a9" height="7" width="10" x="99" y="249"/><rect fill="#090913" height="7" width="4" x="109" y="249"/><rect fill="#d2d2c3" height="7" width="8" x="113" y="249"/><rect fill="#dde0d5" height="7" width="10" x="121" y="249"/><rect fill="#d2d2c3" height="7" width="9" x="131" y="249"/><rect fill="#f6f4e7" height="7" width="7" x="140" y="249"/><rect fill="#dc0d07" height="7" width="12" x="147" y="249"/><rect fill="#090913" height="7" width="8" x="159" y="249"/><rect fill="#f6f4e7" height="7" width="7" x="167" y="249"/><rect fill="#d3a512" height="7" width="10" x="174" y="249"/><rect fill="#afb2a9" height="7" width="6" x="184" y="249"/><rect fill="#dc0d07" height="7" width="4" x="190" y="249"/><rect fill="#090913" height="7" width="11" x="194" y="249"/><rect fill="#1834c3" height="7" width="7" x="205" y="249"/><rect fill="#d2d2c3" height="7" width="9" x="212" y="249"/><rect fill="#1834c3" height="7" width="9" x="221" y="249"/><rect fill="#dc0d07" height="7" width="11" x="230" y="249"/><rect fill="#1923a9" height="7" width="7" x="241" y="249"/><rect fill="#1834c3" height="7" width="8" x="248" y="249"/><rect fill="#dc0d07" height="7" width="10" x="256" y="249"/><rect fill="#afb2a9" height="7" width="6" x="266" y="249"/><rect fill="#dc0d07" height="7" width="9" x="272" y="249"/><rect fill="#1834c3" height="7" width="12" x="281" y="249"/><rect fill="#ab0809" height="7" width="5" x="293" y="249"/><rect fill="#090913" height="7" width="6" x="298" y="249"/><rect fill="#f6f4e7" height="7" width="4" x="304" y="249"/><rect fill="#1834c3" height="7" width="5" x="308" y="249"/><rect fill="#090913" height="7" width="12" x="313" y="249"/><rect fill="#d3a512" height="7" width="6" x="325" y="249"/><rect fill="#dc0d07" height="7" width="12" x="331" y="249"/><rect fill="#f6f4e7" height="7" width="4" x="343" y="249"/><rect fill="#1923a9" height="7" width="11" x="347" y="249"/><rect fill="#d2d2c3" height="7" width="5" x="358" y="249"/><rect fill="#1834c3" height="7" width="5" x="363" y="249"/><rect fill="#dde0d5" height="7" width="7" x="368" y="249"/><rect fill="#afb2a9" height="7" width="11" x="375" y="249"/><rect fill="#dde0d5" height="7" width="6" x="386" y="249"/><rect fill="#f6f4e7" height="7" width="1" x="392" y="249"/><rect fill="#ab0809" height="8" width="11" x="255" y="381"/><rect fill="#1834c3" height="8" width="10" x="266" y="381"/><rect fill="#090913" height="8" width="5" x="276" y="381"/><rect fill="#1834c3" height="8" width="4" x="281" y="381"/><rect fill="#d3a512" height="8" width="10" x="285" y="381"/><rect fill="#ab0809" height="8" width="12" x="295" y="381"/><rect fill="#afb2a9" height="8" width="11" x="307" y="381"/><rect fill="#d3a512" height="8" width="5" x="318" y="381"/><rect fill="#090913" height="8" width="12" x="323" y="381"/><rect fill="#dde0d5" height="8" width="4" x="335" y="381"/><rect fill="#ab0809" height="8" width="9" x="339" y="381"/><rect fill="#090913" height="8" width="10" x="348" y="381"/><rect fill="#f2dd12" height="8" width="11" x="358" y="381"/><rect fill="#afb2a9" height="8" width="7" x="369" y="381"/><rect fill="#f2dd12" height="8" width="5" x="376" y="381"/><rect fill="#f6f4e7" height="8" width="8" x="381" y="381"/><rect fill="#afb2a9" height="8" width="12" x="389" y="381"/><rect fill="#f6f4e7" height="8" width="8" x="401" y="381"/><rect fill="#090913" height="8" width="10" x="409" y="381"/><rect fill="#dc0d07" height="8" width="6" x="419" y="381"/><rect fill="#d3a512" height="8" width="10" x="425" y="381"/><rect fill="#d2d2c3" height="7" width="6" x="298" y="502"/><rect fill="#ab0809" height="7" width="11" x="304" y="502"/><rect fill="#d3a512" height="7" width="8" x="315" y="502"/><rect fill="#f6f4e7" height="7" width="10" x="323" y="502"/><rect fill="#ab0809" height="7" width="6" x="333" y="502"/><rect fill="#afb2a9" height="7" width="12" x="339" y="502"/><rect fill="#d2d2c3" height="7" width="9" x="351" y="502"/><rect fill="#d3a512" height="7" width="7" x="360" y="502"/><rect fill="#1834c3" height="7" width="5" x="367" y="502"/><rect fill="#f2dd12" height="7" width="9" x="372" y="502"/><rect fill="#f6f4e7" height="7" width="12" x="381" y="502"/></svg>